<mxfile host="app.diagrams.net" agent="Mozilla/5.0 (Windows NT 10.0; Win64; x64) AppleWebKit/537.36 (KHTML, like Gecko) Chrome/137.0.0.0 Safari/537.36" version="27.1.6">
  <diagram name="PON2" id="CPztULTY9CAcym6ux5SY">
    <mxGraphModel dx="2037" dy="1263" grid="0" gridSize="10" guides="1" tooltips="1" connect="1" arrows="1" fold="1" page="0" pageScale="1" pageWidth="827" pageHeight="1169" math="0" shadow="0">
      <root>
        <mxCell id="0" />
        <mxCell id="1" parent="0" />
        <mxCell id="cscOLaC8SD0cO7kYF3qo-91" value="" style="shape=ext;double=1;rounded=1;whiteSpace=wrap;html=1;fillColor=none;strokeColor=light-dark(#000000,#FFFF33);shadow=0;glass=0;dashed=1;dashPattern=12 12;" vertex="1" parent="1">
          <mxGeometry x="1814" y="1506" width="415" height="190" as="geometry" />
        </mxCell>
        <mxCell id="cscOLaC8SD0cO7kYF3qo-21" value="ODC-003" style="swimlane;startSize=33;horizontal=0;childLayout=treeLayout;horizontalTree=1;sortEdges=1;resizable=0;containerType=tree;fontSize=20;" vertex="1" parent="1">
          <mxGeometry x="2924" y="747" width="473" height="712" as="geometry" />
        </mxCell>
        <mxCell id="cscOLaC8SD0cO7kYF3qo-22" value="IN 1:8" style="whiteSpace=wrap;html=1;glass=0;" vertex="1" parent="cscOLaC8SD0cO7kYF3qo-21">
          <mxGeometry x="53" y="316" width="100" height="40" as="geometry" />
        </mxCell>
        <mxCell id="cscOLaC8SD0cO7kYF3qo-23" value="OUT 1:8" style="whiteSpace=wrap;html=1;" vertex="1" parent="cscOLaC8SD0cO7kYF3qo-21">
          <mxGeometry x="203" y="20" width="100" height="40" as="geometry" />
        </mxCell>
        <mxCell id="cscOLaC8SD0cO7kYF3qo-24" value="" style="edgeStyle=elbowEdgeStyle;elbow=horizontal;html=1;rounded=1;curved=0;sourcePerimeterSpacing=0;targetPerimeterSpacing=0;startSize=6;endSize=6;" edge="1" parent="cscOLaC8SD0cO7kYF3qo-21" source="cscOLaC8SD0cO7kYF3qo-22" target="cscOLaC8SD0cO7kYF3qo-23">
          <mxGeometry relative="1" as="geometry" />
        </mxCell>
        <mxCell id="cscOLaC8SD0cO7kYF3qo-25" value="OUT 1:8" style="whiteSpace=wrap;html=1;" vertex="1" parent="cscOLaC8SD0cO7kYF3qo-21">
          <mxGeometry x="203" y="100" width="100" height="40" as="geometry" />
        </mxCell>
        <mxCell id="cscOLaC8SD0cO7kYF3qo-26" value="" style="edgeStyle=elbowEdgeStyle;elbow=horizontal;html=1;rounded=1;curved=0;sourcePerimeterSpacing=0;targetPerimeterSpacing=0;startSize=6;endSize=6;" edge="1" parent="cscOLaC8SD0cO7kYF3qo-21" source="cscOLaC8SD0cO7kYF3qo-22" target="cscOLaC8SD0cO7kYF3qo-25">
          <mxGeometry relative="1" as="geometry" />
        </mxCell>
        <mxCell id="cscOLaC8SD0cO7kYF3qo-27" value="" style="edgeStyle=elbowEdgeStyle;elbow=horizontal;html=1;rounded=1;curved=0;sourcePerimeterSpacing=0;targetPerimeterSpacing=0;startSize=6;endSize=6;" edge="1" target="cscOLaC8SD0cO7kYF3qo-28" source="cscOLaC8SD0cO7kYF3qo-22" parent="cscOLaC8SD0cO7kYF3qo-21">
          <mxGeometry relative="1" as="geometry">
            <mxPoint x="2526" y="527" as="sourcePoint" />
          </mxGeometry>
        </mxCell>
        <mxCell id="cscOLaC8SD0cO7kYF3qo-28" value="OUT 1:8" style="whiteSpace=wrap;html=1;" vertex="1" parent="cscOLaC8SD0cO7kYF3qo-21">
          <mxGeometry x="203" y="180" width="100" height="40" as="geometry" />
        </mxCell>
        <mxCell id="cscOLaC8SD0cO7kYF3qo-29" value="" style="edgeStyle=elbowEdgeStyle;elbow=horizontal;html=1;rounded=1;curved=0;sourcePerimeterSpacing=0;targetPerimeterSpacing=0;startSize=6;endSize=6;" edge="1" target="cscOLaC8SD0cO7kYF3qo-30" source="cscOLaC8SD0cO7kYF3qo-22" parent="cscOLaC8SD0cO7kYF3qo-21">
          <mxGeometry relative="1" as="geometry">
            <mxPoint x="2526" y="607" as="sourcePoint" />
          </mxGeometry>
        </mxCell>
        <mxCell id="cscOLaC8SD0cO7kYF3qo-30" value="OUT 1:8" style="whiteSpace=wrap;html=1;" vertex="1" parent="cscOLaC8SD0cO7kYF3qo-21">
          <mxGeometry x="203" y="260" width="100" height="40" as="geometry" />
        </mxCell>
        <mxCell id="cscOLaC8SD0cO7kYF3qo-31" value="" style="edgeStyle=elbowEdgeStyle;elbow=horizontal;html=1;rounded=1;curved=0;sourcePerimeterSpacing=0;targetPerimeterSpacing=0;startSize=6;endSize=6;" edge="1" target="cscOLaC8SD0cO7kYF3qo-32" source="cscOLaC8SD0cO7kYF3qo-22" parent="cscOLaC8SD0cO7kYF3qo-21">
          <mxGeometry relative="1" as="geometry">
            <mxPoint x="2526" y="727" as="sourcePoint" />
          </mxGeometry>
        </mxCell>
        <mxCell id="cscOLaC8SD0cO7kYF3qo-32" value="OUT 1:8" style="whiteSpace=wrap;html=1;" vertex="1" parent="cscOLaC8SD0cO7kYF3qo-21">
          <mxGeometry x="203" y="340" width="100" height="40" as="geometry" />
        </mxCell>
        <mxCell id="cscOLaC8SD0cO7kYF3qo-33" value="" style="edgeStyle=elbowEdgeStyle;elbow=horizontal;html=1;rounded=1;curved=0;sourcePerimeterSpacing=0;targetPerimeterSpacing=0;startSize=6;endSize=6;" edge="1" target="cscOLaC8SD0cO7kYF3qo-34" source="cscOLaC8SD0cO7kYF3qo-22" parent="cscOLaC8SD0cO7kYF3qo-21">
          <mxGeometry relative="1" as="geometry">
            <mxPoint x="2526" y="887" as="sourcePoint" />
          </mxGeometry>
        </mxCell>
        <mxCell id="cscOLaC8SD0cO7kYF3qo-34" value="OUT 1:8" style="whiteSpace=wrap;html=1;" vertex="1" parent="cscOLaC8SD0cO7kYF3qo-21">
          <mxGeometry x="203" y="420" width="100" height="40" as="geometry" />
        </mxCell>
        <mxCell id="cscOLaC8SD0cO7kYF3qo-35" value="" style="edgeStyle=elbowEdgeStyle;elbow=horizontal;html=1;rounded=1;curved=0;sourcePerimeterSpacing=0;targetPerimeterSpacing=0;startSize=6;endSize=6;" edge="1" target="cscOLaC8SD0cO7kYF3qo-36" source="cscOLaC8SD0cO7kYF3qo-22" parent="cscOLaC8SD0cO7kYF3qo-21">
          <mxGeometry relative="1" as="geometry">
            <mxPoint x="2527" y="896" as="sourcePoint" />
          </mxGeometry>
        </mxCell>
        <mxCell id="cscOLaC8SD0cO7kYF3qo-36" value="OUT 1:8" style="whiteSpace=wrap;html=1;" vertex="1" parent="cscOLaC8SD0cO7kYF3qo-21">
          <mxGeometry x="203" y="500" width="100" height="40" as="geometry" />
        </mxCell>
        <mxCell id="cscOLaC8SD0cO7kYF3qo-37" value="" style="edgeStyle=elbowEdgeStyle;elbow=horizontal;html=1;rounded=1;curved=0;sourcePerimeterSpacing=0;targetPerimeterSpacing=0;startSize=6;endSize=6;" edge="1" target="cscOLaC8SD0cO7kYF3qo-38" source="cscOLaC8SD0cO7kYF3qo-22" parent="cscOLaC8SD0cO7kYF3qo-21">
          <mxGeometry relative="1" as="geometry">
            <mxPoint x="2527" y="1136" as="sourcePoint" />
          </mxGeometry>
        </mxCell>
        <mxCell id="cscOLaC8SD0cO7kYF3qo-38" value="OUT 1:8" style="whiteSpace=wrap;html=1;" vertex="1" parent="cscOLaC8SD0cO7kYF3qo-21">
          <mxGeometry x="203" y="612" width="100" height="40" as="geometry" />
        </mxCell>
        <mxCell id="cscOLaC8SD0cO7kYF3qo-68" value="" style="edgeStyle=elbowEdgeStyle;elbow=horizontal;html=1;rounded=1;curved=0;sourcePerimeterSpacing=0;targetPerimeterSpacing=0;startSize=6;endSize=6;" edge="1" target="cscOLaC8SD0cO7kYF3qo-69" source="cscOLaC8SD0cO7kYF3qo-38" parent="cscOLaC8SD0cO7kYF3qo-21">
          <mxGeometry relative="1" as="geometry">
            <mxPoint x="2571" y="1269" as="sourcePoint" />
          </mxGeometry>
        </mxCell>
        <mxCell id="cscOLaC8SD0cO7kYF3qo-69" value="OUT 1:2" style="whiteSpace=wrap;html=1;" vertex="1" parent="cscOLaC8SD0cO7kYF3qo-21">
          <mxGeometry x="353" y="572" width="100" height="40" as="geometry" />
        </mxCell>
        <mxCell id="cscOLaC8SD0cO7kYF3qo-70" value="" style="edgeStyle=elbowEdgeStyle;elbow=horizontal;html=1;rounded=1;curved=0;sourcePerimeterSpacing=0;targetPerimeterSpacing=0;startSize=6;endSize=6;" edge="1" target="cscOLaC8SD0cO7kYF3qo-71" source="cscOLaC8SD0cO7kYF3qo-38" parent="cscOLaC8SD0cO7kYF3qo-21">
          <mxGeometry relative="1" as="geometry">
            <mxPoint x="2721" y="1549" as="sourcePoint" />
          </mxGeometry>
        </mxCell>
        <mxCell id="cscOLaC8SD0cO7kYF3qo-71" value="OUT 1:2" style="whiteSpace=wrap;html=1;" vertex="1" parent="cscOLaC8SD0cO7kYF3qo-21">
          <mxGeometry x="353" y="652" width="100" height="40" as="geometry" />
        </mxCell>
        <mxCell id="GV_QccqQEHEUjS-juZCi-1" value="PON2" style="swimlane;startSize=20;horizontal=0;childLayout=treeLayout;horizontalTree=1;sortEdges=1;resizable=0;containerType=tree;fontSize=15;" parent="1" vertex="1">
          <mxGeometry x="115" y="40" width="935" height="3772" as="geometry" />
        </mxCell>
        <object label="ODC-002&lt;div&gt;[PAREANG]&lt;/div&gt;" id="GV_QccqQEHEUjS-juZCi-2">
          <mxCell style="whiteSpace=wrap;html=1;" parent="GV_QccqQEHEUjS-juZCi-1" vertex="1">
            <mxGeometry x="40" y="1373.5" width="100" height="40" as="geometry" />
          </mxCell>
        </object>
        <mxCell id="GV_QccqQEHEUjS-juZCi-5" value="" style="whiteSpace=wrap;html=1;" parent="GV_QccqQEHEUjS-juZCi-1" vertex="1">
          <mxGeometry x="190" y="372" width="100" height="40" as="geometry" />
        </mxCell>
        <mxCell id="GV_QccqQEHEUjS-juZCi-6" value="" style="edgeStyle=elbowEdgeStyle;elbow=horizontal;html=1;rounded=1;curved=0;sourcePerimeterSpacing=0;targetPerimeterSpacing=0;startSize=6;endSize=6;" parent="GV_QccqQEHEUjS-juZCi-1" source="GV_QccqQEHEUjS-juZCi-2" target="GV_QccqQEHEUjS-juZCi-5" edge="1">
          <mxGeometry relative="1" as="geometry" />
        </mxCell>
        <mxCell id="GV_QccqQEHEUjS-juZCi-27" value="" style="edgeStyle=elbowEdgeStyle;elbow=horizontal;html=1;rounded=1;curved=0;sourcePerimeterSpacing=0;targetPerimeterSpacing=0;startSize=6;endSize=6;" parent="GV_QccqQEHEUjS-juZCi-1" source="GV_QccqQEHEUjS-juZCi-2" target="GV_QccqQEHEUjS-juZCi-28" edge="1">
          <mxGeometry relative="1" as="geometry">
            <mxPoint x="255" y="-18428.899999999998" as="sourcePoint" />
          </mxGeometry>
        </mxCell>
        <mxCell id="GV_QccqQEHEUjS-juZCi-28" value="ODC-003&lt;div&gt;[CIHEULANG]&lt;/div&gt;" style="whiteSpace=wrap;html=1;" parent="GV_QccqQEHEUjS-juZCi-1" vertex="1">
          <mxGeometry x="190" y="2375" width="100" height="40" as="geometry" />
        </mxCell>
        <mxCell id="GV_QccqQEHEUjS-juZCi-29" value="" style="edgeStyle=elbowEdgeStyle;elbow=horizontal;html=1;rounded=1;curved=0;sourcePerimeterSpacing=0;targetPerimeterSpacing=0;startSize=6;endSize=6;" parent="GV_QccqQEHEUjS-juZCi-1" source="GV_QccqQEHEUjS-juZCi-5" target="GV_QccqQEHEUjS-juZCi-30" edge="1">
          <mxGeometry relative="1" as="geometry">
            <mxPoint x="255" y="-18033.699999999997" as="sourcePoint" />
          </mxGeometry>
        </mxCell>
        <mxCell id="GV_QccqQEHEUjS-juZCi-30" value="" style="whiteSpace=wrap;html=1;" parent="GV_QccqQEHEUjS-juZCi-1" vertex="1">
          <mxGeometry x="340" y="124" width="100" height="40" as="geometry" />
        </mxCell>
        <mxCell id="GV_QccqQEHEUjS-juZCi-31" value="" style="edgeStyle=elbowEdgeStyle;elbow=horizontal;html=1;rounded=1;curved=0;sourcePerimeterSpacing=0;targetPerimeterSpacing=0;startSize=6;endSize=6;" parent="GV_QccqQEHEUjS-juZCi-1" source="GV_QccqQEHEUjS-juZCi-5" target="GV_QccqQEHEUjS-juZCi-32" edge="1">
          <mxGeometry relative="1" as="geometry">
            <mxPoint x="405" y="-18073.699999999997" as="sourcePoint" />
          </mxGeometry>
        </mxCell>
        <mxCell id="GV_QccqQEHEUjS-juZCi-32" value="" style="whiteSpace=wrap;html=1;" parent="GV_QccqQEHEUjS-juZCi-1" vertex="1">
          <mxGeometry x="340" y="204" width="100" height="40" as="geometry" />
        </mxCell>
        <mxCell id="GV_QccqQEHEUjS-juZCi-33" value="" style="edgeStyle=elbowEdgeStyle;elbow=horizontal;html=1;rounded=1;curved=0;sourcePerimeterSpacing=0;targetPerimeterSpacing=0;startSize=6;endSize=6;" parent="GV_QccqQEHEUjS-juZCi-1" source="GV_QccqQEHEUjS-juZCi-5" target="GV_QccqQEHEUjS-juZCi-34" edge="1">
          <mxGeometry relative="1" as="geometry">
            <mxPoint x="405" y="-17993.699999999997" as="sourcePoint" />
          </mxGeometry>
        </mxCell>
        <mxCell id="GV_QccqQEHEUjS-juZCi-34" value="" style="whiteSpace=wrap;html=1;" parent="GV_QccqQEHEUjS-juZCi-1" vertex="1">
          <mxGeometry x="340" y="284" width="100" height="40" as="geometry" />
        </mxCell>
        <mxCell id="GV_QccqQEHEUjS-juZCi-35" value="" style="edgeStyle=elbowEdgeStyle;elbow=horizontal;html=1;rounded=1;curved=0;sourcePerimeterSpacing=0;targetPerimeterSpacing=0;startSize=6;endSize=6;" parent="GV_QccqQEHEUjS-juZCi-1" source="GV_QccqQEHEUjS-juZCi-5" target="GV_QccqQEHEUjS-juZCi-36" edge="1">
          <mxGeometry relative="1" as="geometry">
            <mxPoint x="405" y="-17857.699999999997" as="sourcePoint" />
          </mxGeometry>
        </mxCell>
        <mxCell id="GV_QccqQEHEUjS-juZCi-36" value="" style="whiteSpace=wrap;html=1;" parent="GV_QccqQEHEUjS-juZCi-1" vertex="1">
          <mxGeometry x="340" y="620" width="100" height="40" as="geometry" />
        </mxCell>
        <mxCell id="GV_QccqQEHEUjS-juZCi-41" value="" style="edgeStyle=elbowEdgeStyle;elbow=horizontal;html=1;rounded=1;curved=0;sourcePerimeterSpacing=0;targetPerimeterSpacing=0;startSize=6;endSize=6;" parent="GV_QccqQEHEUjS-juZCi-1" source="GV_QccqQEHEUjS-juZCi-36" target="GV_QccqQEHEUjS-juZCi-42" edge="1">
          <mxGeometry relative="1" as="geometry">
            <mxPoint x="555" y="-17305.699999999997" as="sourcePoint" />
          </mxGeometry>
        </mxCell>
        <mxCell id="GV_QccqQEHEUjS-juZCi-42" value="" style="whiteSpace=wrap;html=1;" parent="GV_QccqQEHEUjS-juZCi-1" vertex="1">
          <mxGeometry x="490" y="300" width="100" height="40" as="geometry" />
        </mxCell>
        <mxCell id="GV_QccqQEHEUjS-juZCi-43" value="" style="edgeStyle=elbowEdgeStyle;elbow=horizontal;html=1;rounded=1;curved=0;sourcePerimeterSpacing=0;targetPerimeterSpacing=0;startSize=6;endSize=6;" parent="GV_QccqQEHEUjS-juZCi-1" source="GV_QccqQEHEUjS-juZCi-36" target="GV_QccqQEHEUjS-juZCi-44" edge="1">
          <mxGeometry relative="1" as="geometry">
            <mxPoint x="555" y="-17043.3" as="sourcePoint" />
          </mxGeometry>
        </mxCell>
        <mxCell id="GV_QccqQEHEUjS-juZCi-44" value="" style="whiteSpace=wrap;html=1;" parent="GV_QccqQEHEUjS-juZCi-1" vertex="1">
          <mxGeometry x="490" y="940" width="100" height="40" as="geometry" />
        </mxCell>
        <mxCell id="GV_QccqQEHEUjS-juZCi-45" value="" style="edgeStyle=elbowEdgeStyle;elbow=horizontal;html=1;rounded=1;curved=0;sourcePerimeterSpacing=0;targetPerimeterSpacing=0;startSize=6;endSize=6;" parent="GV_QccqQEHEUjS-juZCi-1" source="GV_QccqQEHEUjS-juZCi-28" target="GV_QccqQEHEUjS-juZCi-46" edge="1">
          <mxGeometry relative="1" as="geometry">
            <mxPoint x="255" y="-16819.5" as="sourcePoint" />
          </mxGeometry>
        </mxCell>
        <mxCell id="GV_QccqQEHEUjS-juZCi-46" value="" style="whiteSpace=wrap;html=1;" parent="GV_QccqQEHEUjS-juZCi-1" vertex="1">
          <mxGeometry x="340" y="1812" width="100" height="40" as="geometry" />
        </mxCell>
        <mxCell id="GV_QccqQEHEUjS-juZCi-47" value="" style="edgeStyle=elbowEdgeStyle;elbow=horizontal;html=1;rounded=1;curved=0;sourcePerimeterSpacing=0;targetPerimeterSpacing=0;startSize=6;endSize=6;" parent="GV_QccqQEHEUjS-juZCi-1" source="GV_QccqQEHEUjS-juZCi-28" target="GV_QccqQEHEUjS-juZCi-48" edge="1">
          <mxGeometry relative="1" as="geometry">
            <mxPoint x="405" y="-16307.3" as="sourcePoint" />
          </mxGeometry>
        </mxCell>
        <mxCell id="GV_QccqQEHEUjS-juZCi-48" value="ODC-004&lt;div&gt;[MAKAM]&lt;/div&gt;" style="whiteSpace=wrap;html=1;" parent="GV_QccqQEHEUjS-juZCi-1" vertex="1">
          <mxGeometry x="340" y="2938" width="100" height="40" as="geometry" />
        </mxCell>
        <mxCell id="GV_QccqQEHEUjS-juZCi-49" value="" style="edgeStyle=elbowEdgeStyle;elbow=horizontal;html=1;rounded=1;curved=0;sourcePerimeterSpacing=0;targetPerimeterSpacing=0;startSize=6;endSize=6;" parent="GV_QccqQEHEUjS-juZCi-1" source="GV_QccqQEHEUjS-juZCi-46" target="GV_QccqQEHEUjS-juZCi-50" edge="1">
          <mxGeometry relative="1" as="geometry">
            <mxPoint x="405" y="-16287.3" as="sourcePoint" />
          </mxGeometry>
        </mxCell>
        <mxCell id="GV_QccqQEHEUjS-juZCi-50" value="ODP-003-001" style="whiteSpace=wrap;html=1;" parent="GV_QccqQEHEUjS-juZCi-1" vertex="1">
          <mxGeometry x="490" y="1580" width="100" height="40" as="geometry" />
        </mxCell>
        <mxCell id="GV_QccqQEHEUjS-juZCi-51" value="" style="edgeStyle=elbowEdgeStyle;elbow=horizontal;html=1;rounded=1;curved=0;sourcePerimeterSpacing=0;targetPerimeterSpacing=0;startSize=6;endSize=6;" parent="GV_QccqQEHEUjS-juZCi-1" source="GV_QccqQEHEUjS-juZCi-50" target="GV_QccqQEHEUjS-juZCi-52" edge="1">
          <mxGeometry relative="1" as="geometry">
            <mxPoint x="555" y="-16315.3" as="sourcePoint" />
          </mxGeometry>
        </mxCell>
        <mxCell id="GV_QccqQEHEUjS-juZCi-52" value="1." style="whiteSpace=wrap;html=1;align=left;" parent="GV_QccqQEHEUjS-juZCi-1" vertex="1">
          <mxGeometry x="640" y="1300" width="100" height="40" as="geometry" />
        </mxCell>
        <mxCell id="GV_QccqQEHEUjS-juZCi-53" value="" style="edgeStyle=elbowEdgeStyle;elbow=horizontal;html=1;rounded=1;curved=0;sourcePerimeterSpacing=0;targetPerimeterSpacing=0;startSize=6;endSize=6;" parent="GV_QccqQEHEUjS-juZCi-1" source="GV_QccqQEHEUjS-juZCi-46" target="GV_QccqQEHEUjS-juZCi-54" edge="1">
          <mxGeometry relative="1" as="geometry">
            <mxPoint x="555" y="-16315.3" as="sourcePoint" />
          </mxGeometry>
        </mxCell>
        <mxCell id="GV_QccqQEHEUjS-juZCi-54" value="ODP-003-002" style="whiteSpace=wrap;html=1;" parent="GV_QccqQEHEUjS-juZCi-1" vertex="1">
          <mxGeometry x="490" y="1884" width="100" height="40" as="geometry" />
        </mxCell>
        <mxCell id="GV_QccqQEHEUjS-juZCi-55" value="" style="edgeStyle=elbowEdgeStyle;elbow=horizontal;html=1;rounded=1;curved=0;sourcePerimeterSpacing=0;targetPerimeterSpacing=0;startSize=6;endSize=6;" parent="GV_QccqQEHEUjS-juZCi-1" source="GV_QccqQEHEUjS-juZCi-50" target="GV_QccqQEHEUjS-juZCi-56" edge="1">
          <mxGeometry relative="1" as="geometry">
            <mxPoint x="705" y="-15943.300000000001" as="sourcePoint" />
          </mxGeometry>
        </mxCell>
        <mxCell id="GV_QccqQEHEUjS-juZCi-56" value="2." style="whiteSpace=wrap;html=1;align=left;" parent="GV_QccqQEHEUjS-juZCi-1" vertex="1">
          <mxGeometry x="640" y="1380" width="100" height="40" as="geometry" />
        </mxCell>
        <mxCell id="GV_QccqQEHEUjS-juZCi-57" value="" style="edgeStyle=elbowEdgeStyle;elbow=horizontal;html=1;rounded=1;curved=0;sourcePerimeterSpacing=0;targetPerimeterSpacing=0;startSize=6;endSize=6;" parent="GV_QccqQEHEUjS-juZCi-1" source="GV_QccqQEHEUjS-juZCi-50" target="GV_QccqQEHEUjS-juZCi-58" edge="1">
          <mxGeometry relative="1" as="geometry">
            <mxPoint x="705" y="-15511.300000000001" as="sourcePoint" />
          </mxGeometry>
        </mxCell>
        <mxCell id="GV_QccqQEHEUjS-juZCi-58" value="3." style="whiteSpace=wrap;html=1;align=left;" parent="GV_QccqQEHEUjS-juZCi-1" vertex="1">
          <mxGeometry x="640" y="1460" width="100" height="40" as="geometry" />
        </mxCell>
        <mxCell id="GV_QccqQEHEUjS-juZCi-59" value="" style="edgeStyle=elbowEdgeStyle;elbow=horizontal;html=1;rounded=1;curved=0;sourcePerimeterSpacing=0;targetPerimeterSpacing=0;startSize=6;endSize=6;" parent="GV_QccqQEHEUjS-juZCi-1" source="GV_QccqQEHEUjS-juZCi-50" target="GV_QccqQEHEUjS-juZCi-60" edge="1">
          <mxGeometry relative="1" as="geometry">
            <mxPoint x="705" y="-15052.1" as="sourcePoint" />
          </mxGeometry>
        </mxCell>
        <mxCell id="GV_QccqQEHEUjS-juZCi-60" value="4." style="whiteSpace=wrap;html=1;align=left;" parent="GV_QccqQEHEUjS-juZCi-1" vertex="1">
          <mxGeometry x="640" y="1540" width="100" height="40" as="geometry" />
        </mxCell>
        <mxCell id="GV_QccqQEHEUjS-juZCi-61" value="" style="edgeStyle=elbowEdgeStyle;elbow=horizontal;html=1;rounded=1;curved=0;sourcePerimeterSpacing=0;targetPerimeterSpacing=0;startSize=6;endSize=6;" parent="GV_QccqQEHEUjS-juZCi-1" source="GV_QccqQEHEUjS-juZCi-46" target="GV_QccqQEHEUjS-juZCi-62" edge="1">
          <mxGeometry relative="1" as="geometry">
            <mxPoint x="555" y="-14477.7" as="sourcePoint" />
          </mxGeometry>
        </mxCell>
        <mxCell id="GV_QccqQEHEUjS-juZCi-62" value="ODP-003-003" style="whiteSpace=wrap;html=1;" parent="GV_QccqQEHEUjS-juZCi-1" vertex="1">
          <mxGeometry x="490" y="1964" width="100" height="40" as="geometry" />
        </mxCell>
        <mxCell id="GV_QccqQEHEUjS-juZCi-63" value="" style="edgeStyle=elbowEdgeStyle;elbow=horizontal;html=1;rounded=1;curved=0;sourcePerimeterSpacing=0;targetPerimeterSpacing=0;startSize=6;endSize=6;" parent="GV_QccqQEHEUjS-juZCi-1" source="GV_QccqQEHEUjS-juZCi-46" target="GV_QccqQEHEUjS-juZCi-64" edge="1">
          <mxGeometry relative="1" as="geometry">
            <mxPoint x="555" y="-13956.1" as="sourcePoint" />
          </mxGeometry>
        </mxCell>
        <mxCell id="GV_QccqQEHEUjS-juZCi-64" value="ODP-003-004" style="whiteSpace=wrap;html=1;" parent="GV_QccqQEHEUjS-juZCi-1" vertex="1">
          <mxGeometry x="490" y="2044" width="100" height="40" as="geometry" />
        </mxCell>
        <mxCell id="GV_QccqQEHEUjS-juZCi-65" value="" style="edgeStyle=elbowEdgeStyle;elbow=horizontal;html=1;rounded=1;curved=0;sourcePerimeterSpacing=0;targetPerimeterSpacing=0;startSize=6;endSize=6;" parent="GV_QccqQEHEUjS-juZCi-1" source="GV_QccqQEHEUjS-juZCi-50" target="GV_QccqQEHEUjS-juZCi-66" edge="1">
          <mxGeometry relative="1" as="geometry">
            <mxPoint x="705" y="-13574.5" as="sourcePoint" />
          </mxGeometry>
        </mxCell>
        <mxCell id="GV_QccqQEHEUjS-juZCi-66" value="5." style="whiteSpace=wrap;html=1;align=left;" parent="GV_QccqQEHEUjS-juZCi-1" vertex="1">
          <mxGeometry x="640" y="1620" width="100" height="40" as="geometry" />
        </mxCell>
        <mxCell id="GV_QccqQEHEUjS-juZCi-67" value="" style="edgeStyle=elbowEdgeStyle;elbow=horizontal;html=1;rounded=1;curved=0;sourcePerimeterSpacing=0;targetPerimeterSpacing=0;startSize=6;endSize=6;" parent="GV_QccqQEHEUjS-juZCi-1" source="GV_QccqQEHEUjS-juZCi-50" target="GV_QccqQEHEUjS-juZCi-68" edge="1">
          <mxGeometry relative="1" as="geometry">
            <mxPoint x="705" y="-13004.9" as="sourcePoint" />
          </mxGeometry>
        </mxCell>
        <mxCell id="GV_QccqQEHEUjS-juZCi-68" value="6." style="whiteSpace=wrap;html=1;align=left;" parent="GV_QccqQEHEUjS-juZCi-1" vertex="1">
          <mxGeometry x="640" y="1700" width="100" height="40" as="geometry" />
        </mxCell>
        <mxCell id="GV_QccqQEHEUjS-juZCi-69" value="" style="edgeStyle=elbowEdgeStyle;elbow=horizontal;html=1;rounded=1;curved=0;sourcePerimeterSpacing=0;targetPerimeterSpacing=0;startSize=6;endSize=6;" parent="GV_QccqQEHEUjS-juZCi-1" source="GV_QccqQEHEUjS-juZCi-50" target="GV_QccqQEHEUjS-juZCi-70" edge="1">
          <mxGeometry relative="1" as="geometry">
            <mxPoint x="705" y="-12408.1" as="sourcePoint" />
          </mxGeometry>
        </mxCell>
        <mxCell id="GV_QccqQEHEUjS-juZCi-70" value="7." style="whiteSpace=wrap;html=1;align=left;" parent="GV_QccqQEHEUjS-juZCi-1" vertex="1">
          <mxGeometry x="640" y="1780" width="100" height="40" as="geometry" />
        </mxCell>
        <mxCell id="GV_QccqQEHEUjS-juZCi-71" value="" style="edgeStyle=elbowEdgeStyle;elbow=horizontal;html=1;rounded=1;curved=0;sourcePerimeterSpacing=0;targetPerimeterSpacing=0;startSize=6;endSize=6;" parent="GV_QccqQEHEUjS-juZCi-1" source="GV_QccqQEHEUjS-juZCi-50" target="GV_QccqQEHEUjS-juZCi-72" edge="1">
          <mxGeometry relative="1" as="geometry">
            <mxPoint x="705" y="-11784.1" as="sourcePoint" />
          </mxGeometry>
        </mxCell>
        <mxCell id="GV_QccqQEHEUjS-juZCi-72" value="8." style="whiteSpace=wrap;html=1;align=left;" parent="GV_QccqQEHEUjS-juZCi-1" vertex="1">
          <mxGeometry x="640" y="1860" width="100" height="40" as="geometry" />
        </mxCell>
        <mxCell id="GV_QccqQEHEUjS-juZCi-73" value="" style="edgeStyle=elbowEdgeStyle;elbow=horizontal;html=1;rounded=1;curved=0;sourcePerimeterSpacing=0;targetPerimeterSpacing=0;startSize=6;endSize=6;" parent="GV_QccqQEHEUjS-juZCi-1" source="GV_QccqQEHEUjS-juZCi-48" target="GV_QccqQEHEUjS-juZCi-74" edge="1">
          <mxGeometry relative="1" as="geometry">
            <mxPoint x="405" y="-10767.9" as="sourcePoint" />
          </mxGeometry>
        </mxCell>
        <mxCell id="GV_QccqQEHEUjS-juZCi-74" value="" style="whiteSpace=wrap;html=1;" parent="GV_QccqQEHEUjS-juZCi-1" vertex="1">
          <mxGeometry x="490" y="2348" width="100" height="40" as="geometry" />
        </mxCell>
        <mxCell id="GV_QccqQEHEUjS-juZCi-75" value="" style="edgeStyle=elbowEdgeStyle;elbow=horizontal;html=1;rounded=1;curved=0;sourcePerimeterSpacing=0;targetPerimeterSpacing=0;startSize=6;endSize=6;" parent="GV_QccqQEHEUjS-juZCi-1" source="GV_QccqQEHEUjS-juZCi-74" target="GV_QccqQEHEUjS-juZCi-76" edge="1">
          <mxGeometry relative="1" as="geometry">
            <mxPoint x="555" y="-10600.5" as="sourcePoint" />
          </mxGeometry>
        </mxCell>
        <mxCell id="GV_QccqQEHEUjS-juZCi-76" value="" style="whiteSpace=wrap;html=1;" parent="GV_QccqQEHEUjS-juZCi-1" vertex="1">
          <mxGeometry x="640" y="2068" width="100" height="40" as="geometry" />
        </mxCell>
        <mxCell id="GV_QccqQEHEUjS-juZCi-77" value="" style="edgeStyle=elbowEdgeStyle;elbow=horizontal;html=1;rounded=1;curved=0;sourcePerimeterSpacing=0;targetPerimeterSpacing=0;startSize=6;endSize=6;" parent="GV_QccqQEHEUjS-juZCi-1" source="GV_QccqQEHEUjS-juZCi-48" target="GV_QccqQEHEUjS-juZCi-78" edge="1">
          <mxGeometry relative="1" as="geometry">
            <mxPoint x="555" y="-10600.5" as="sourcePoint" />
          </mxGeometry>
        </mxCell>
        <mxCell id="GV_QccqQEHEUjS-juZCi-78" value="ODP-004-001&lt;div&gt;[CISITU]&lt;/div&gt;" style="whiteSpace=wrap;html=1;" parent="GV_QccqQEHEUjS-juZCi-1" vertex="1">
          <mxGeometry x="490" y="3112" width="100" height="40" as="geometry" />
        </mxCell>
        <mxCell id="GV_QccqQEHEUjS-juZCi-79" value="" style="edgeStyle=elbowEdgeStyle;elbow=horizontal;html=1;rounded=1;curved=0;sourcePerimeterSpacing=0;targetPerimeterSpacing=0;startSize=6;endSize=6;" parent="GV_QccqQEHEUjS-juZCi-1" source="GV_QccqQEHEUjS-juZCi-74" target="GV_QccqQEHEUjS-juZCi-80" edge="1">
          <mxGeometry relative="1" as="geometry">
            <mxPoint x="705" y="-10610.5" as="sourcePoint" />
          </mxGeometry>
        </mxCell>
        <mxCell id="GV_QccqQEHEUjS-juZCi-80" value="" style="whiteSpace=wrap;html=1;" parent="GV_QccqQEHEUjS-juZCi-1" vertex="1">
          <mxGeometry x="640" y="2148" width="100" height="40" as="geometry" />
        </mxCell>
        <mxCell id="GV_QccqQEHEUjS-juZCi-81" value="" style="edgeStyle=elbowEdgeStyle;elbow=horizontal;html=1;rounded=1;curved=0;sourcePerimeterSpacing=0;targetPerimeterSpacing=0;startSize=6;endSize=6;" parent="GV_QccqQEHEUjS-juZCi-1" source="GV_QccqQEHEUjS-juZCi-74" target="GV_QccqQEHEUjS-juZCi-82" edge="1">
          <mxGeometry relative="1" as="geometry">
            <mxPoint x="705" y="-10590.5" as="sourcePoint" />
          </mxGeometry>
        </mxCell>
        <mxCell id="GV_QccqQEHEUjS-juZCi-82" value="" style="whiteSpace=wrap;html=1;" parent="GV_QccqQEHEUjS-juZCi-1" vertex="1">
          <mxGeometry x="640" y="2228" width="100" height="40" as="geometry" />
        </mxCell>
        <mxCell id="GV_QccqQEHEUjS-juZCi-83" value="" style="edgeStyle=elbowEdgeStyle;elbow=horizontal;html=1;rounded=1;curved=0;sourcePerimeterSpacing=0;targetPerimeterSpacing=0;startSize=6;endSize=6;" parent="GV_QccqQEHEUjS-juZCi-1" source="GV_QccqQEHEUjS-juZCi-74" target="GV_QccqQEHEUjS-juZCi-84" edge="1">
          <mxGeometry relative="1" as="geometry">
            <mxPoint x="705" y="-10570.5" as="sourcePoint" />
          </mxGeometry>
        </mxCell>
        <mxCell id="GV_QccqQEHEUjS-juZCi-84" value="" style="whiteSpace=wrap;html=1;" parent="GV_QccqQEHEUjS-juZCi-1" vertex="1">
          <mxGeometry x="640" y="2308" width="100" height="40" as="geometry" />
        </mxCell>
        <mxCell id="GV_QccqQEHEUjS-juZCi-85" value="" style="edgeStyle=elbowEdgeStyle;elbow=horizontal;html=1;rounded=1;curved=0;sourcePerimeterSpacing=0;targetPerimeterSpacing=0;startSize=6;endSize=6;" parent="GV_QccqQEHEUjS-juZCi-1" source="GV_QccqQEHEUjS-juZCi-74" target="GV_QccqQEHEUjS-juZCi-86" edge="1">
          <mxGeometry relative="1" as="geometry">
            <mxPoint x="705" y="-10550.5" as="sourcePoint" />
          </mxGeometry>
        </mxCell>
        <mxCell id="GV_QccqQEHEUjS-juZCi-86" value="" style="whiteSpace=wrap;html=1;" parent="GV_QccqQEHEUjS-juZCi-1" vertex="1">
          <mxGeometry x="640" y="2388" width="100" height="40" as="geometry" />
        </mxCell>
        <mxCell id="GV_QccqQEHEUjS-juZCi-87" value="" style="edgeStyle=elbowEdgeStyle;elbow=horizontal;html=1;rounded=1;curved=0;sourcePerimeterSpacing=0;targetPerimeterSpacing=0;startSize=6;endSize=6;" parent="GV_QccqQEHEUjS-juZCi-1" source="GV_QccqQEHEUjS-juZCi-74" target="GV_QccqQEHEUjS-juZCi-88" edge="1">
          <mxGeometry relative="1" as="geometry">
            <mxPoint x="705" y="-10530.5" as="sourcePoint" />
          </mxGeometry>
        </mxCell>
        <mxCell id="GV_QccqQEHEUjS-juZCi-88" value="" style="whiteSpace=wrap;html=1;" parent="GV_QccqQEHEUjS-juZCi-1" vertex="1">
          <mxGeometry x="640" y="2468" width="100" height="40" as="geometry" />
        </mxCell>
        <mxCell id="GV_QccqQEHEUjS-juZCi-89" value="" style="edgeStyle=elbowEdgeStyle;elbow=horizontal;html=1;rounded=1;curved=0;sourcePerimeterSpacing=0;targetPerimeterSpacing=0;startSize=6;endSize=6;" parent="GV_QccqQEHEUjS-juZCi-1" source="GV_QccqQEHEUjS-juZCi-74" target="GV_QccqQEHEUjS-juZCi-90" edge="1">
          <mxGeometry relative="1" as="geometry">
            <mxPoint x="705" y="-10510.5" as="sourcePoint" />
          </mxGeometry>
        </mxCell>
        <mxCell id="GV_QccqQEHEUjS-juZCi-90" value="" style="whiteSpace=wrap;html=1;" parent="GV_QccqQEHEUjS-juZCi-1" vertex="1">
          <mxGeometry x="640" y="2548" width="100" height="40" as="geometry" />
        </mxCell>
        <mxCell id="GV_QccqQEHEUjS-juZCi-91" value="" style="edgeStyle=elbowEdgeStyle;elbow=horizontal;html=1;rounded=1;curved=0;sourcePerimeterSpacing=0;targetPerimeterSpacing=0;startSize=6;endSize=6;" parent="GV_QccqQEHEUjS-juZCi-1" source="GV_QccqQEHEUjS-juZCi-74" target="GV_QccqQEHEUjS-juZCi-92" edge="1">
          <mxGeometry relative="1" as="geometry">
            <mxPoint x="705" y="-10490.5" as="sourcePoint" />
          </mxGeometry>
        </mxCell>
        <mxCell id="GV_QccqQEHEUjS-juZCi-92" value="" style="whiteSpace=wrap;html=1;" parent="GV_QccqQEHEUjS-juZCi-1" vertex="1">
          <mxGeometry x="640" y="2628" width="100" height="40" as="geometry" />
        </mxCell>
        <mxCell id="GV_QccqQEHEUjS-juZCi-93" value="" style="edgeStyle=elbowEdgeStyle;elbow=horizontal;html=1;rounded=1;curved=0;sourcePerimeterSpacing=0;targetPerimeterSpacing=0;startSize=6;endSize=6;" parent="GV_QccqQEHEUjS-juZCi-1" source="GV_QccqQEHEUjS-juZCi-78" target="GV_QccqQEHEUjS-juZCi-94" edge="1">
          <mxGeometry relative="1" as="geometry">
            <mxPoint x="555" y="-10318.5" as="sourcePoint" />
          </mxGeometry>
        </mxCell>
        <mxCell id="GV_QccqQEHEUjS-juZCi-94" value="" style="whiteSpace=wrap;html=1;" parent="GV_QccqQEHEUjS-juZCi-1" vertex="1">
          <mxGeometry x="640" y="2792" width="125" height="40" as="geometry" />
        </mxCell>
        <mxCell id="GV_QccqQEHEUjS-juZCi-95" value="" style="edgeStyle=elbowEdgeStyle;elbow=horizontal;html=1;rounded=1;curved=0;sourcePerimeterSpacing=0;targetPerimeterSpacing=0;startSize=6;endSize=6;" parent="GV_QccqQEHEUjS-juZCi-1" source="GV_QccqQEHEUjS-juZCi-78" target="GV_QccqQEHEUjS-juZCi-96" edge="1">
          <mxGeometry relative="1" as="geometry">
            <mxPoint x="705" y="-10117.5" as="sourcePoint" />
          </mxGeometry>
        </mxCell>
        <mxCell id="GV_QccqQEHEUjS-juZCi-96" value="ODP-004-002&lt;div&gt;[CISITU-MUSHOLA]&lt;/div&gt;" style="whiteSpace=wrap;html=1;" parent="GV_QccqQEHEUjS-juZCi-1" vertex="1">
          <mxGeometry x="640" y="3432" width="122" height="40" as="geometry" />
        </mxCell>
        <mxCell id="GV_QccqQEHEUjS-juZCi-97" value="" style="edgeStyle=elbowEdgeStyle;elbow=horizontal;html=1;rounded=1;curved=0;sourcePerimeterSpacing=0;targetPerimeterSpacing=0;startSize=6;endSize=6;" parent="GV_QccqQEHEUjS-juZCi-1" source="GV_QccqQEHEUjS-juZCi-94" target="GV_QccqQEHEUjS-juZCi-98" edge="1">
          <mxGeometry relative="1" as="geometry">
            <mxPoint x="705" y="-10082.5" as="sourcePoint" />
          </mxGeometry>
        </mxCell>
        <mxCell id="GV_QccqQEHEUjS-juZCi-98" value="" style="whiteSpace=wrap;html=1;" parent="GV_QccqQEHEUjS-juZCi-1" vertex="1">
          <mxGeometry x="815" y="2512" width="100" height="40" as="geometry" />
        </mxCell>
        <mxCell id="GV_QccqQEHEUjS-juZCi-99" value="" style="edgeStyle=elbowEdgeStyle;elbow=horizontal;html=1;rounded=1;curved=0;sourcePerimeterSpacing=0;targetPerimeterSpacing=0;startSize=6;endSize=6;" parent="GV_QccqQEHEUjS-juZCi-1" source="GV_QccqQEHEUjS-juZCi-94" target="GV_QccqQEHEUjS-juZCi-100" edge="1">
          <mxGeometry relative="1" as="geometry">
            <mxPoint x="855" y="-10122.5" as="sourcePoint" />
          </mxGeometry>
        </mxCell>
        <mxCell id="GV_QccqQEHEUjS-juZCi-100" value="" style="whiteSpace=wrap;html=1;" parent="GV_QccqQEHEUjS-juZCi-1" vertex="1">
          <mxGeometry x="815" y="2592" width="100" height="40" as="geometry" />
        </mxCell>
        <mxCell id="GV_QccqQEHEUjS-juZCi-101" value="" style="edgeStyle=elbowEdgeStyle;elbow=horizontal;html=1;rounded=1;curved=0;sourcePerimeterSpacing=0;targetPerimeterSpacing=0;startSize=6;endSize=6;" parent="GV_QccqQEHEUjS-juZCi-1" source="GV_QccqQEHEUjS-juZCi-94" target="GV_QccqQEHEUjS-juZCi-102" edge="1">
          <mxGeometry relative="1" as="geometry">
            <mxPoint x="855" y="-10096.5" as="sourcePoint" />
          </mxGeometry>
        </mxCell>
        <mxCell id="GV_QccqQEHEUjS-juZCi-102" value="" style="whiteSpace=wrap;html=1;" parent="GV_QccqQEHEUjS-juZCi-1" vertex="1">
          <mxGeometry x="815" y="2672" width="100" height="40" as="geometry" />
        </mxCell>
        <mxCell id="GV_QccqQEHEUjS-juZCi-103" value="" style="edgeStyle=elbowEdgeStyle;elbow=horizontal;html=1;rounded=1;curved=0;sourcePerimeterSpacing=0;targetPerimeterSpacing=0;startSize=6;endSize=6;" parent="GV_QccqQEHEUjS-juZCi-1" source="GV_QccqQEHEUjS-juZCi-94" target="GV_QccqQEHEUjS-juZCi-104" edge="1">
          <mxGeometry relative="1" as="geometry">
            <mxPoint x="855" y="-10070.5" as="sourcePoint" />
          </mxGeometry>
        </mxCell>
        <mxCell id="GV_QccqQEHEUjS-juZCi-104" value="" style="whiteSpace=wrap;html=1;" parent="GV_QccqQEHEUjS-juZCi-1" vertex="1">
          <mxGeometry x="815" y="2752" width="100" height="40" as="geometry" />
        </mxCell>
        <mxCell id="GV_QccqQEHEUjS-juZCi-105" value="" style="edgeStyle=elbowEdgeStyle;elbow=horizontal;html=1;rounded=1;curved=0;sourcePerimeterSpacing=0;targetPerimeterSpacing=0;startSize=6;endSize=6;" parent="GV_QccqQEHEUjS-juZCi-1" source="GV_QccqQEHEUjS-juZCi-94" target="GV_QccqQEHEUjS-juZCi-106" edge="1">
          <mxGeometry relative="1" as="geometry">
            <mxPoint x="855" y="-10044.5" as="sourcePoint" />
          </mxGeometry>
        </mxCell>
        <mxCell id="GV_QccqQEHEUjS-juZCi-106" value="" style="whiteSpace=wrap;html=1;" parent="GV_QccqQEHEUjS-juZCi-1" vertex="1">
          <mxGeometry x="815" y="2832" width="100" height="40" as="geometry" />
        </mxCell>
        <mxCell id="GV_QccqQEHEUjS-juZCi-107" value="" style="edgeStyle=elbowEdgeStyle;elbow=horizontal;html=1;rounded=1;curved=0;sourcePerimeterSpacing=0;targetPerimeterSpacing=0;startSize=6;endSize=6;" parent="GV_QccqQEHEUjS-juZCi-1" source="GV_QccqQEHEUjS-juZCi-94" target="GV_QccqQEHEUjS-juZCi-108" edge="1">
          <mxGeometry relative="1" as="geometry">
            <mxPoint x="855" y="-10018.5" as="sourcePoint" />
          </mxGeometry>
        </mxCell>
        <mxCell id="GV_QccqQEHEUjS-juZCi-108" value="" style="whiteSpace=wrap;html=1;" parent="GV_QccqQEHEUjS-juZCi-1" vertex="1">
          <mxGeometry x="815" y="2912" width="100" height="40" as="geometry" />
        </mxCell>
        <mxCell id="GV_QccqQEHEUjS-juZCi-109" value="" style="edgeStyle=elbowEdgeStyle;elbow=horizontal;html=1;rounded=1;curved=0;sourcePerimeterSpacing=0;targetPerimeterSpacing=0;startSize=6;endSize=6;" parent="GV_QccqQEHEUjS-juZCi-1" source="GV_QccqQEHEUjS-juZCi-94" target="GV_QccqQEHEUjS-juZCi-110" edge="1">
          <mxGeometry relative="1" as="geometry">
            <mxPoint x="855" y="-9992.5" as="sourcePoint" />
          </mxGeometry>
        </mxCell>
        <mxCell id="GV_QccqQEHEUjS-juZCi-110" value="" style="whiteSpace=wrap;html=1;" parent="GV_QccqQEHEUjS-juZCi-1" vertex="1">
          <mxGeometry x="815" y="2992" width="100" height="40" as="geometry" />
        </mxCell>
        <mxCell id="GV_QccqQEHEUjS-juZCi-111" value="" style="edgeStyle=elbowEdgeStyle;elbow=horizontal;html=1;rounded=1;curved=0;sourcePerimeterSpacing=0;targetPerimeterSpacing=0;startSize=6;endSize=6;" parent="GV_QccqQEHEUjS-juZCi-1" source="GV_QccqQEHEUjS-juZCi-94" target="GV_QccqQEHEUjS-juZCi-112" edge="1">
          <mxGeometry relative="1" as="geometry">
            <mxPoint x="855" y="-9966.5" as="sourcePoint" />
          </mxGeometry>
        </mxCell>
        <mxCell id="GV_QccqQEHEUjS-juZCi-112" value="" style="whiteSpace=wrap;html=1;" parent="GV_QccqQEHEUjS-juZCi-1" vertex="1">
          <mxGeometry x="815" y="3072" width="100" height="40" as="geometry" />
        </mxCell>
        <mxCell id="GV_QccqQEHEUjS-juZCi-113" value="" style="edgeStyle=elbowEdgeStyle;elbow=horizontal;html=1;rounded=1;curved=0;sourcePerimeterSpacing=0;targetPerimeterSpacing=0;startSize=6;endSize=6;" parent="GV_QccqQEHEUjS-juZCi-1" source="GV_QccqQEHEUjS-juZCi-96" target="GV_QccqQEHEUjS-juZCi-114" edge="1">
          <mxGeometry relative="1" as="geometry">
            <mxPoint x="705" y="-9788.5" as="sourcePoint" />
          </mxGeometry>
        </mxCell>
        <mxCell id="GV_QccqQEHEUjS-juZCi-114" value="" style="whiteSpace=wrap;html=1;" parent="GV_QccqQEHEUjS-juZCi-1" vertex="1">
          <mxGeometry x="812" y="3152" width="100" height="40" as="geometry" />
        </mxCell>
        <mxCell id="GV_QccqQEHEUjS-juZCi-115" value="" style="edgeStyle=elbowEdgeStyle;elbow=horizontal;html=1;rounded=1;curved=0;sourcePerimeterSpacing=0;targetPerimeterSpacing=0;startSize=6;endSize=6;" parent="GV_QccqQEHEUjS-juZCi-1" source="GV_QccqQEHEUjS-juZCi-96" target="GV_QccqQEHEUjS-juZCi-116" edge="1">
          <mxGeometry relative="1" as="geometry">
            <mxPoint x="855" y="-9584" as="sourcePoint" />
          </mxGeometry>
        </mxCell>
        <mxCell id="GV_QccqQEHEUjS-juZCi-116" value="" style="whiteSpace=wrap;html=1;" parent="GV_QccqQEHEUjS-juZCi-1" vertex="1">
          <mxGeometry x="812" y="3232" width="100" height="40" as="geometry" />
        </mxCell>
        <mxCell id="GV_QccqQEHEUjS-juZCi-117" value="" style="edgeStyle=elbowEdgeStyle;elbow=horizontal;html=1;rounded=1;curved=0;sourcePerimeterSpacing=0;targetPerimeterSpacing=0;startSize=6;endSize=6;" parent="GV_QccqQEHEUjS-juZCi-1" source="GV_QccqQEHEUjS-juZCi-96" target="GV_QccqQEHEUjS-juZCi-118" edge="1">
          <mxGeometry relative="1" as="geometry">
            <mxPoint x="855" y="-9546.5" as="sourcePoint" />
          </mxGeometry>
        </mxCell>
        <mxCell id="GV_QccqQEHEUjS-juZCi-118" value="" style="whiteSpace=wrap;html=1;" parent="GV_QccqQEHEUjS-juZCi-1" vertex="1">
          <mxGeometry x="812" y="3312" width="100" height="40" as="geometry" />
        </mxCell>
        <mxCell id="GV_QccqQEHEUjS-juZCi-119" value="" style="edgeStyle=elbowEdgeStyle;elbow=horizontal;html=1;rounded=1;curved=0;sourcePerimeterSpacing=0;targetPerimeterSpacing=0;startSize=6;endSize=6;" parent="GV_QccqQEHEUjS-juZCi-1" source="GV_QccqQEHEUjS-juZCi-96" target="GV_QccqQEHEUjS-juZCi-120" edge="1">
          <mxGeometry relative="1" as="geometry">
            <mxPoint x="855" y="-9509" as="sourcePoint" />
          </mxGeometry>
        </mxCell>
        <mxCell id="GV_QccqQEHEUjS-juZCi-120" value="" style="whiteSpace=wrap;html=1;" parent="GV_QccqQEHEUjS-juZCi-1" vertex="1">
          <mxGeometry x="812" y="3392" width="100" height="40" as="geometry" />
        </mxCell>
        <mxCell id="GV_QccqQEHEUjS-juZCi-121" value="" style="edgeStyle=elbowEdgeStyle;elbow=horizontal;html=1;rounded=1;curved=0;sourcePerimeterSpacing=0;targetPerimeterSpacing=0;startSize=6;endSize=6;" parent="GV_QccqQEHEUjS-juZCi-1" source="GV_QccqQEHEUjS-juZCi-96" target="GV_QccqQEHEUjS-juZCi-122" edge="1">
          <mxGeometry relative="1" as="geometry">
            <mxPoint x="855" y="-9471.5" as="sourcePoint" />
          </mxGeometry>
        </mxCell>
        <mxCell id="GV_QccqQEHEUjS-juZCi-122" value="" style="whiteSpace=wrap;html=1;" parent="GV_QccqQEHEUjS-juZCi-1" vertex="1">
          <mxGeometry x="812" y="3472" width="100" height="40" as="geometry" />
        </mxCell>
        <mxCell id="GV_QccqQEHEUjS-juZCi-123" value="" style="edgeStyle=elbowEdgeStyle;elbow=horizontal;html=1;rounded=1;curved=0;sourcePerimeterSpacing=0;targetPerimeterSpacing=0;startSize=6;endSize=6;" parent="GV_QccqQEHEUjS-juZCi-1" source="GV_QccqQEHEUjS-juZCi-96" target="GV_QccqQEHEUjS-juZCi-124" edge="1">
          <mxGeometry relative="1" as="geometry">
            <mxPoint x="855" y="-9434" as="sourcePoint" />
          </mxGeometry>
        </mxCell>
        <mxCell id="GV_QccqQEHEUjS-juZCi-124" value="" style="whiteSpace=wrap;html=1;" parent="GV_QccqQEHEUjS-juZCi-1" vertex="1">
          <mxGeometry x="812" y="3552" width="100" height="40" as="geometry" />
        </mxCell>
        <mxCell id="GV_QccqQEHEUjS-juZCi-125" value="" style="edgeStyle=elbowEdgeStyle;elbow=horizontal;html=1;rounded=1;curved=0;sourcePerimeterSpacing=0;targetPerimeterSpacing=0;startSize=6;endSize=6;" parent="GV_QccqQEHEUjS-juZCi-1" source="GV_QccqQEHEUjS-juZCi-96" target="GV_QccqQEHEUjS-juZCi-126" edge="1">
          <mxGeometry relative="1" as="geometry">
            <mxPoint x="855" y="-9396.5" as="sourcePoint" />
          </mxGeometry>
        </mxCell>
        <mxCell id="GV_QccqQEHEUjS-juZCi-126" value="" style="whiteSpace=wrap;html=1;" parent="GV_QccqQEHEUjS-juZCi-1" vertex="1">
          <mxGeometry x="812" y="3632" width="100" height="40" as="geometry" />
        </mxCell>
        <mxCell id="GV_QccqQEHEUjS-juZCi-127" value="" style="edgeStyle=elbowEdgeStyle;elbow=horizontal;html=1;rounded=1;curved=0;sourcePerimeterSpacing=0;targetPerimeterSpacing=0;startSize=6;endSize=6;" parent="GV_QccqQEHEUjS-juZCi-1" source="GV_QccqQEHEUjS-juZCi-96" target="GV_QccqQEHEUjS-juZCi-128" edge="1">
          <mxGeometry relative="1" as="geometry">
            <mxPoint x="855" y="-9359" as="sourcePoint" />
          </mxGeometry>
        </mxCell>
        <mxCell id="GV_QccqQEHEUjS-juZCi-128" value="" style="whiteSpace=wrap;html=1;" parent="GV_QccqQEHEUjS-juZCi-1" vertex="1">
          <mxGeometry x="812" y="3712" width="100" height="40" as="geometry" />
        </mxCell>
        <mxCell id="GV_QccqQEHEUjS-juZCi-142" value="" style="edgeStyle=elbowEdgeStyle;elbow=horizontal;html=1;rounded=1;curved=0;sourcePerimeterSpacing=0;targetPerimeterSpacing=0;startSize=6;endSize=6;" parent="GV_QccqQEHEUjS-juZCi-1" source="GV_QccqQEHEUjS-juZCi-42" target="GV_QccqQEHEUjS-juZCi-143" edge="1">
          <mxGeometry relative="1" as="geometry">
            <mxPoint x="555" y="-11713.5" as="sourcePoint" />
          </mxGeometry>
        </mxCell>
        <mxCell id="GV_QccqQEHEUjS-juZCi-143" value="" style="whiteSpace=wrap;html=1;" parent="GV_QccqQEHEUjS-juZCi-1" vertex="1">
          <mxGeometry x="640" y="20" width="100" height="40" as="geometry" />
        </mxCell>
        <mxCell id="GV_QccqQEHEUjS-juZCi-144" value="" style="edgeStyle=elbowEdgeStyle;elbow=horizontal;html=1;rounded=1;curved=0;sourcePerimeterSpacing=0;targetPerimeterSpacing=0;startSize=6;endSize=6;" parent="GV_QccqQEHEUjS-juZCi-1" source="GV_QccqQEHEUjS-juZCi-42" target="GV_QccqQEHEUjS-juZCi-145" edge="1">
          <mxGeometry relative="1" as="geometry">
            <mxPoint x="705" y="-11753.5" as="sourcePoint" />
          </mxGeometry>
        </mxCell>
        <mxCell id="GV_QccqQEHEUjS-juZCi-145" value="" style="whiteSpace=wrap;html=1;" parent="GV_QccqQEHEUjS-juZCi-1" vertex="1">
          <mxGeometry x="640" y="100" width="100" height="40" as="geometry" />
        </mxCell>
        <mxCell id="GV_QccqQEHEUjS-juZCi-146" value="" style="edgeStyle=elbowEdgeStyle;elbow=horizontal;html=1;rounded=1;curved=0;sourcePerimeterSpacing=0;targetPerimeterSpacing=0;startSize=6;endSize=6;" parent="GV_QccqQEHEUjS-juZCi-1" source="GV_QccqQEHEUjS-juZCi-42" target="GV_QccqQEHEUjS-juZCi-147" edge="1">
          <mxGeometry relative="1" as="geometry">
            <mxPoint x="705" y="-11774.1" as="sourcePoint" />
          </mxGeometry>
        </mxCell>
        <mxCell id="GV_QccqQEHEUjS-juZCi-147" value="" style="whiteSpace=wrap;html=1;" parent="GV_QccqQEHEUjS-juZCi-1" vertex="1">
          <mxGeometry x="640" y="180" width="100" height="40" as="geometry" />
        </mxCell>
        <mxCell id="GV_QccqQEHEUjS-juZCi-148" value="" style="edgeStyle=elbowEdgeStyle;elbow=horizontal;html=1;rounded=1;curved=0;sourcePerimeterSpacing=0;targetPerimeterSpacing=0;startSize=6;endSize=6;" parent="GV_QccqQEHEUjS-juZCi-1" source="GV_QccqQEHEUjS-juZCi-42" target="GV_QccqQEHEUjS-juZCi-149" edge="1">
          <mxGeometry relative="1" as="geometry">
            <mxPoint x="705" y="-11794.7" as="sourcePoint" />
          </mxGeometry>
        </mxCell>
        <mxCell id="GV_QccqQEHEUjS-juZCi-149" value="" style="whiteSpace=wrap;html=1;" parent="GV_QccqQEHEUjS-juZCi-1" vertex="1">
          <mxGeometry x="640" y="260" width="100" height="40" as="geometry" />
        </mxCell>
        <mxCell id="GV_QccqQEHEUjS-juZCi-152" value="" style="edgeStyle=elbowEdgeStyle;elbow=horizontal;html=1;rounded=1;curved=0;sourcePerimeterSpacing=0;targetPerimeterSpacing=0;startSize=6;endSize=6;" parent="GV_QccqQEHEUjS-juZCi-1" source="GV_QccqQEHEUjS-juZCi-44" target="GV_QccqQEHEUjS-juZCi-153" edge="1">
          <mxGeometry relative="1" as="geometry">
            <mxPoint x="555" y="-11728.3" as="sourcePoint" />
          </mxGeometry>
        </mxCell>
        <mxCell id="GV_QccqQEHEUjS-juZCi-153" value="" style="whiteSpace=wrap;html=1;" parent="GV_QccqQEHEUjS-juZCi-1" vertex="1">
          <mxGeometry x="640" y="660" width="100" height="40" as="geometry" />
        </mxCell>
        <mxCell id="GV_QccqQEHEUjS-juZCi-154" value="" style="edgeStyle=elbowEdgeStyle;elbow=horizontal;html=1;rounded=1;curved=0;sourcePerimeterSpacing=0;targetPerimeterSpacing=0;startSize=6;endSize=6;" parent="GV_QccqQEHEUjS-juZCi-1" source="GV_QccqQEHEUjS-juZCi-44" target="GV_QccqQEHEUjS-juZCi-155" edge="1">
          <mxGeometry relative="1" as="geometry">
            <mxPoint x="705" y="-10826.5" as="sourcePoint" />
          </mxGeometry>
        </mxCell>
        <mxCell id="GV_QccqQEHEUjS-juZCi-155" value="" style="whiteSpace=wrap;html=1;" parent="GV_QccqQEHEUjS-juZCi-1" vertex="1">
          <mxGeometry x="640" y="740" width="100" height="40" as="geometry" />
        </mxCell>
        <mxCell id="GV_QccqQEHEUjS-juZCi-156" value="" style="edgeStyle=elbowEdgeStyle;elbow=horizontal;html=1;rounded=1;curved=0;sourcePerimeterSpacing=0;targetPerimeterSpacing=0;startSize=6;endSize=6;" parent="GV_QccqQEHEUjS-juZCi-1" source="GV_QccqQEHEUjS-juZCi-44" target="GV_QccqQEHEUjS-juZCi-157" edge="1">
          <mxGeometry relative="1" as="geometry">
            <mxPoint x="705" y="-10832.5" as="sourcePoint" />
          </mxGeometry>
        </mxCell>
        <mxCell id="GV_QccqQEHEUjS-juZCi-157" value="" style="whiteSpace=wrap;html=1;" parent="GV_QccqQEHEUjS-juZCi-1" vertex="1">
          <mxGeometry x="640" y="820" width="100" height="40" as="geometry" />
        </mxCell>
        <mxCell id="GV_QccqQEHEUjS-juZCi-158" value="" style="edgeStyle=elbowEdgeStyle;elbow=horizontal;html=1;rounded=1;curved=0;sourcePerimeterSpacing=0;targetPerimeterSpacing=0;startSize=6;endSize=6;" parent="GV_QccqQEHEUjS-juZCi-1" source="GV_QccqQEHEUjS-juZCi-44" target="GV_QccqQEHEUjS-juZCi-159" edge="1">
          <mxGeometry relative="1" as="geometry">
            <mxPoint x="705" y="-10838.5" as="sourcePoint" />
          </mxGeometry>
        </mxCell>
        <mxCell id="GV_QccqQEHEUjS-juZCi-159" value="" style="whiteSpace=wrap;html=1;" parent="GV_QccqQEHEUjS-juZCi-1" vertex="1">
          <mxGeometry x="640" y="900" width="100" height="40" as="geometry" />
        </mxCell>
        <mxCell id="GV_QccqQEHEUjS-juZCi-170" value="" style="edgeStyle=elbowEdgeStyle;elbow=horizontal;html=1;rounded=1;curved=0;sourcePerimeterSpacing=0;targetPerimeterSpacing=0;startSize=6;endSize=6;" parent="GV_QccqQEHEUjS-juZCi-1" source="GV_QccqQEHEUjS-juZCi-42" target="GV_QccqQEHEUjS-juZCi-171" edge="1">
          <mxGeometry relative="1" as="geometry">
            <mxPoint x="705" y="-11164.5" as="sourcePoint" />
          </mxGeometry>
        </mxCell>
        <mxCell id="GV_QccqQEHEUjS-juZCi-171" value="" style="whiteSpace=wrap;html=1;" parent="GV_QccqQEHEUjS-juZCi-1" vertex="1">
          <mxGeometry x="640" y="340" width="100" height="40" as="geometry" />
        </mxCell>
        <mxCell id="GV_QccqQEHEUjS-juZCi-172" value="" style="edgeStyle=elbowEdgeStyle;elbow=horizontal;html=1;rounded=1;curved=0;sourcePerimeterSpacing=0;targetPerimeterSpacing=0;startSize=6;endSize=6;" parent="GV_QccqQEHEUjS-juZCi-1" source="GV_QccqQEHEUjS-juZCi-42" target="GV_QccqQEHEUjS-juZCi-173" edge="1">
          <mxGeometry relative="1" as="geometry">
            <mxPoint x="705" y="-10209.5" as="sourcePoint" />
          </mxGeometry>
        </mxCell>
        <mxCell id="GV_QccqQEHEUjS-juZCi-173" value="" style="whiteSpace=wrap;html=1;" parent="GV_QccqQEHEUjS-juZCi-1" vertex="1">
          <mxGeometry x="640" y="420" width="100" height="40" as="geometry" />
        </mxCell>
        <mxCell id="GV_QccqQEHEUjS-juZCi-174" value="" style="edgeStyle=elbowEdgeStyle;elbow=horizontal;html=1;rounded=1;curved=0;sourcePerimeterSpacing=0;targetPerimeterSpacing=0;startSize=6;endSize=6;" parent="GV_QccqQEHEUjS-juZCi-1" source="GV_QccqQEHEUjS-juZCi-42" target="GV_QccqQEHEUjS-juZCi-175" edge="1">
          <mxGeometry relative="1" as="geometry">
            <mxPoint x="705" y="-9232.5" as="sourcePoint" />
          </mxGeometry>
        </mxCell>
        <mxCell id="GV_QccqQEHEUjS-juZCi-175" value="" style="whiteSpace=wrap;html=1;" parent="GV_QccqQEHEUjS-juZCi-1" vertex="1">
          <mxGeometry x="640" y="500" width="100" height="40" as="geometry" />
        </mxCell>
        <mxCell id="GV_QccqQEHEUjS-juZCi-176" value="" style="edgeStyle=elbowEdgeStyle;elbow=horizontal;html=1;rounded=1;curved=0;sourcePerimeterSpacing=0;targetPerimeterSpacing=0;startSize=6;endSize=6;" parent="GV_QccqQEHEUjS-juZCi-1" source="GV_QccqQEHEUjS-juZCi-42" target="GV_QccqQEHEUjS-juZCi-177" edge="1">
          <mxGeometry relative="1" as="geometry">
            <mxPoint x="705" y="-8189.5" as="sourcePoint" />
          </mxGeometry>
        </mxCell>
        <mxCell id="GV_QccqQEHEUjS-juZCi-177" value="" style="whiteSpace=wrap;html=1;" parent="GV_QccqQEHEUjS-juZCi-1" vertex="1">
          <mxGeometry x="640" y="580" width="100" height="40" as="geometry" />
        </mxCell>
        <mxCell id="GV_QccqQEHEUjS-juZCi-178" value="" style="edgeStyle=elbowEdgeStyle;elbow=horizontal;html=1;rounded=1;curved=0;sourcePerimeterSpacing=0;targetPerimeterSpacing=0;startSize=6;endSize=6;" parent="GV_QccqQEHEUjS-juZCi-1" source="GV_QccqQEHEUjS-juZCi-44" target="GV_QccqQEHEUjS-juZCi-179" edge="1">
          <mxGeometry relative="1" as="geometry">
            <mxPoint x="705" y="-6600.5" as="sourcePoint" />
          </mxGeometry>
        </mxCell>
        <mxCell id="GV_QccqQEHEUjS-juZCi-179" value="" style="whiteSpace=wrap;html=1;" parent="GV_QccqQEHEUjS-juZCi-1" vertex="1">
          <mxGeometry x="640" y="980" width="100" height="40" as="geometry" />
        </mxCell>
        <mxCell id="GV_QccqQEHEUjS-juZCi-180" value="" style="edgeStyle=elbowEdgeStyle;elbow=horizontal;html=1;rounded=1;curved=0;sourcePerimeterSpacing=0;targetPerimeterSpacing=0;startSize=6;endSize=6;" parent="GV_QccqQEHEUjS-juZCi-1" source="GV_QccqQEHEUjS-juZCi-44" target="GV_QccqQEHEUjS-juZCi-181" edge="1">
          <mxGeometry relative="1" as="geometry">
            <mxPoint x="705" y="-5425.5" as="sourcePoint" />
          </mxGeometry>
        </mxCell>
        <mxCell id="GV_QccqQEHEUjS-juZCi-181" value="" style="whiteSpace=wrap;html=1;" parent="GV_QccqQEHEUjS-juZCi-1" vertex="1">
          <mxGeometry x="640" y="1060" width="100" height="40" as="geometry" />
        </mxCell>
        <mxCell id="GV_QccqQEHEUjS-juZCi-182" value="" style="edgeStyle=elbowEdgeStyle;elbow=horizontal;html=1;rounded=1;curved=0;sourcePerimeterSpacing=0;targetPerimeterSpacing=0;startSize=6;endSize=6;" parent="GV_QccqQEHEUjS-juZCi-1" source="GV_QccqQEHEUjS-juZCi-44" target="GV_QccqQEHEUjS-juZCi-183" edge="1">
          <mxGeometry relative="1" as="geometry">
            <mxPoint x="705" y="-4204.5" as="sourcePoint" />
          </mxGeometry>
        </mxCell>
        <mxCell id="GV_QccqQEHEUjS-juZCi-183" value="" style="whiteSpace=wrap;html=1;" parent="GV_QccqQEHEUjS-juZCi-1" vertex="1">
          <mxGeometry x="640" y="1140" width="100" height="40" as="geometry" />
        </mxCell>
        <mxCell id="GV_QccqQEHEUjS-juZCi-184" value="" style="edgeStyle=elbowEdgeStyle;elbow=horizontal;html=1;rounded=1;curved=0;sourcePerimeterSpacing=0;targetPerimeterSpacing=0;startSize=6;endSize=6;" parent="GV_QccqQEHEUjS-juZCi-1" source="GV_QccqQEHEUjS-juZCi-44" target="GV_QccqQEHEUjS-juZCi-185" edge="1">
          <mxGeometry relative="1" as="geometry">
            <mxPoint x="705" y="-2937.5" as="sourcePoint" />
          </mxGeometry>
        </mxCell>
        <mxCell id="GV_QccqQEHEUjS-juZCi-185" value="" style="whiteSpace=wrap;html=1;" parent="GV_QccqQEHEUjS-juZCi-1" vertex="1">
          <mxGeometry x="640" y="1220" width="100" height="40" as="geometry" />
        </mxCell>
        <mxCell id="GV_QccqQEHEUjS-juZCi-189" value="" style="edgeStyle=elbowEdgeStyle;elbow=horizontal;html=1;rounded=1;curved=0;sourcePerimeterSpacing=0;targetPerimeterSpacing=0;startSize=6;endSize=6;" parent="GV_QccqQEHEUjS-juZCi-1" source="GV_QccqQEHEUjS-juZCi-48" target="GV_QccqQEHEUjS-juZCi-190" edge="1">
          <mxGeometry relative="1" as="geometry">
            <mxPoint x="555" y="1498.5" as="sourcePoint" />
          </mxGeometry>
        </mxCell>
        <mxCell id="GV_QccqQEHEUjS-juZCi-190" value="" style="whiteSpace=wrap;html=1;" parent="GV_QccqQEHEUjS-juZCi-1" vertex="1">
          <mxGeometry x="490" y="3448" width="100" height="40" as="geometry" />
        </mxCell>
        <mxCell id="GV_QccqQEHEUjS-juZCi-191" value="" style="edgeStyle=elbowEdgeStyle;elbow=horizontal;html=1;rounded=1;curved=0;sourcePerimeterSpacing=0;targetPerimeterSpacing=0;startSize=6;endSize=6;" parent="GV_QccqQEHEUjS-juZCi-1" source="GV_QccqQEHEUjS-juZCi-48" target="GV_QccqQEHEUjS-juZCi-192" edge="1">
          <mxGeometry relative="1" as="geometry">
            <mxPoint x="555" y="2968" as="sourcePoint" />
          </mxGeometry>
        </mxCell>
        <mxCell id="GV_QccqQEHEUjS-juZCi-192" value="" style="whiteSpace=wrap;html=1;" parent="GV_QccqQEHEUjS-juZCi-1" vertex="1">
          <mxGeometry x="490" y="3528" width="100" height="40" as="geometry" />
        </mxCell>
        <mxCell id="cscOLaC8SD0cO7kYF3qo-4" value="" style="line;strokeWidth=2;html=1;strokeColor=light-dark(#000000,#FF9933);" vertex="1" parent="1">
          <mxGeometry x="1278" y="1606" width="594" height="10" as="geometry" />
        </mxCell>
        <mxCell id="cscOLaC8SD0cO7kYF3qo-72" style="edgeStyle=orthogonalEdgeStyle;rounded=0;orthogonalLoop=1;jettySize=auto;html=1;exitX=1;exitY=0.5;exitDx=0;exitDy=0;exitPerimeter=0;entryX=0.5;entryY=1;entryDx=0;entryDy=0;flowAnimation=1;strokeColor=light-dark(#000000,#FF9933);" edge="1" parent="1" source="cscOLaC8SD0cO7kYF3qo-11" target="cscOLaC8SD0cO7kYF3qo-22">
          <mxGeometry relative="1" as="geometry">
            <Array as="points">
              <mxPoint x="3027" y="1611" />
            </Array>
          </mxGeometry>
        </mxCell>
        <mxCell id="cscOLaC8SD0cO7kYF3qo-11" value="" style="line;strokeWidth=2;html=1;strokeColor=light-dark(#000000,#FF9933);" vertex="1" parent="1">
          <mxGeometry x="2174" y="1606" width="771" height="10" as="geometry" />
        </mxCell>
        <mxCell id="cscOLaC8SD0cO7kYF3qo-12" style="edgeStyle=orthogonalEdgeStyle;rounded=0;orthogonalLoop=1;jettySize=auto;html=1;exitX=1;exitY=0.5;exitDx=0;exitDy=0;entryX=0;entryY=0.5;entryDx=0;entryDy=0;entryPerimeter=0;exitPerimeter=0;flowAnimation=1;strokeColor=light-dark(#000000,#FF9933);" edge="1" parent="1" source="cscOLaC8SD0cO7kYF3qo-4" target="cscOLaC8SD0cO7kYF3qo-11">
          <mxGeometry relative="1" as="geometry" />
        </mxCell>
        <mxCell id="cscOLaC8SD0cO7kYF3qo-14" value="" style="line;strokeWidth=2;html=1;strokeColor=light-dark(#FFFFFF,#0000FF);fillColor=light-dark(#FFFFFF,#0000FF);" vertex="1" parent="1">
          <mxGeometry x="1278" y="1630" width="594" height="10" as="geometry" />
        </mxCell>
        <mxCell id="cscOLaC8SD0cO7kYF3qo-89" style="edgeStyle=orthogonalEdgeStyle;rounded=0;orthogonalLoop=1;jettySize=auto;html=1;exitX=0;exitY=0.5;exitDx=0;exitDy=0;exitPerimeter=0;entryX=0.5;entryY=1;entryDx=0;entryDy=0;flowAnimation=1;endSize=13;strokeColor=light-dark(#000000,#0000FF);" edge="1" parent="1" source="cscOLaC8SD0cO7kYF3qo-15" target="cscOLaC8SD0cO7kYF3qo-47">
          <mxGeometry relative="1" as="geometry" />
        </mxCell>
        <mxCell id="cscOLaC8SD0cO7kYF3qo-15" value="" style="line;strokeWidth=2;html=1;strokeColor=light-dark(#FFFFFF,#0000FF);fillColor=light-dark(#FFFFFF,#0000FF);" vertex="1" parent="1">
          <mxGeometry x="2173" y="1630" width="1108" height="10" as="geometry" />
        </mxCell>
        <mxCell id="cscOLaC8SD0cO7kYF3qo-40" style="edgeStyle=orthogonalEdgeStyle;rounded=0;orthogonalLoop=1;jettySize=auto;html=1;exitX=1;exitY=0.5;exitDx=0;exitDy=0;entryX=1;entryY=0.5;entryDx=0;entryDy=0;entryPerimeter=0;strokeColor=light-dark(#000000,#0000FF);flowAnimation=1;endSize=7;" edge="1" parent="1" source="cscOLaC8SD0cO7kYF3qo-28" target="cscOLaC8SD0cO7kYF3qo-15">
          <mxGeometry relative="1" as="geometry">
            <Array as="points">
              <mxPoint x="3451" y="947" />
              <mxPoint x="3451" y="1635" />
            </Array>
          </mxGeometry>
        </mxCell>
        <mxCell id="cscOLaC8SD0cO7kYF3qo-41" value="" style="line;strokeWidth=2;html=1;strokeColor=light-dark(#000000,#FF9933);" vertex="1" parent="1">
          <mxGeometry x="3535" y="1606" width="588" height="10" as="geometry" />
        </mxCell>
        <mxCell id="cscOLaC8SD0cO7kYF3qo-42" value="" style="line;strokeWidth=2;html=1;strokeColor=light-dark(#FFFFFF,#0000FF);fillColor=light-dark(#FFFFFF,#0000FF);" vertex="1" parent="1">
          <mxGeometry x="3535" y="1630" width="594" height="10" as="geometry" />
        </mxCell>
        <mxCell id="cscOLaC8SD0cO7kYF3qo-44" style="edgeStyle=orthogonalEdgeStyle;rounded=0;orthogonalLoop=1;jettySize=auto;html=1;exitX=1;exitY=0.5;exitDx=0;exitDy=0;entryX=0;entryY=0.5;entryDx=0;entryDy=0;entryPerimeter=0;strokeColor=light-dark(#000000,#FF9933);flowAnimation=1;" edge="1" parent="1" source="cscOLaC8SD0cO7kYF3qo-23" target="cscOLaC8SD0cO7kYF3qo-41">
          <mxGeometry relative="1" as="geometry">
            <Array as="points">
              <mxPoint x="3494" y="787" />
              <mxPoint x="3494" y="1611" />
            </Array>
          </mxGeometry>
        </mxCell>
        <mxCell id="cscOLaC8SD0cO7kYF3qo-45" style="edgeStyle=orthogonalEdgeStyle;rounded=0;orthogonalLoop=1;jettySize=auto;html=1;exitX=1;exitY=0.5;exitDx=0;exitDy=0;entryX=0;entryY=0.5;entryDx=0;entryDy=0;entryPerimeter=0;strokeColor=light-dark(#000000,#0000FF);flowAnimation=1;" edge="1" parent="1" source="cscOLaC8SD0cO7kYF3qo-25" target="cscOLaC8SD0cO7kYF3qo-42">
          <mxGeometry relative="1" as="geometry">
            <Array as="points">
              <mxPoint x="3474" y="867" />
              <mxPoint x="3474" y="1635" />
            </Array>
          </mxGeometry>
        </mxCell>
        <mxCell id="cscOLaC8SD0cO7kYF3qo-46" value="ODC-002" style="swimlane;startSize=29;horizontal=0;childLayout=treeLayout;horizontalTree=1;sortEdges=1;resizable=0;containerType=tree;fontSize=20;" vertex="1" parent="1">
          <mxGeometry x="1872" y="933" width="469" height="536" as="geometry" />
        </mxCell>
        <mxCell id="cscOLaC8SD0cO7kYF3qo-47" value="IN 1:4" style="whiteSpace=wrap;html=1;" vertex="1" parent="cscOLaC8SD0cO7kYF3qo-46">
          <mxGeometry x="49" y="308" width="100" height="40" as="geometry" />
        </mxCell>
        <mxCell id="cscOLaC8SD0cO7kYF3qo-48" value="OUT 1:4" style="whiteSpace=wrap;html=1;" vertex="1" parent="cscOLaC8SD0cO7kYF3qo-46">
          <mxGeometry x="199" y="140" width="100" height="40" as="geometry" />
        </mxCell>
        <mxCell id="cscOLaC8SD0cO7kYF3qo-49" value="" style="edgeStyle=elbowEdgeStyle;elbow=horizontal;html=1;rounded=1;curved=0;sourcePerimeterSpacing=0;targetPerimeterSpacing=0;startSize=6;endSize=6;" edge="1" parent="cscOLaC8SD0cO7kYF3qo-46" source="cscOLaC8SD0cO7kYF3qo-47" target="cscOLaC8SD0cO7kYF3qo-48">
          <mxGeometry relative="1" as="geometry" />
        </mxCell>
        <mxCell id="cscOLaC8SD0cO7kYF3qo-50" value="OUT 1:4" style="whiteSpace=wrap;html=1;" vertex="1" parent="cscOLaC8SD0cO7kYF3qo-46">
          <mxGeometry x="199" y="316" width="100" height="40" as="geometry" />
        </mxCell>
        <mxCell id="cscOLaC8SD0cO7kYF3qo-51" value="" style="edgeStyle=elbowEdgeStyle;elbow=horizontal;html=1;rounded=1;curved=0;sourcePerimeterSpacing=0;targetPerimeterSpacing=0;startSize=6;endSize=6;" edge="1" parent="cscOLaC8SD0cO7kYF3qo-46" source="cscOLaC8SD0cO7kYF3qo-47" target="cscOLaC8SD0cO7kYF3qo-50">
          <mxGeometry relative="1" as="geometry" />
        </mxCell>
        <mxCell id="cscOLaC8SD0cO7kYF3qo-73" value="" style="edgeStyle=elbowEdgeStyle;elbow=horizontal;html=1;rounded=1;curved=0;sourcePerimeterSpacing=0;targetPerimeterSpacing=0;startSize=6;endSize=6;" edge="1" target="cscOLaC8SD0cO7kYF3qo-74" source="cscOLaC8SD0cO7kYF3qo-47" parent="cscOLaC8SD0cO7kYF3qo-46">
          <mxGeometry relative="1" as="geometry">
            <mxPoint x="2021" y="365" as="sourcePoint" />
          </mxGeometry>
        </mxCell>
        <mxCell id="cscOLaC8SD0cO7kYF3qo-74" value="OUT 1:4" style="whiteSpace=wrap;html=1;" vertex="1" parent="cscOLaC8SD0cO7kYF3qo-46">
          <mxGeometry x="199" y="396" width="100" height="40" as="geometry" />
        </mxCell>
        <mxCell id="cscOLaC8SD0cO7kYF3qo-75" value="" style="edgeStyle=elbowEdgeStyle;elbow=horizontal;html=1;rounded=1;curved=0;sourcePerimeterSpacing=0;targetPerimeterSpacing=0;startSize=6;endSize=6;" edge="1" target="cscOLaC8SD0cO7kYF3qo-76" source="cscOLaC8SD0cO7kYF3qo-47" parent="cscOLaC8SD0cO7kYF3qo-46">
          <mxGeometry relative="1" as="geometry">
            <mxPoint x="2021" y="445" as="sourcePoint" />
          </mxGeometry>
        </mxCell>
        <mxCell id="cscOLaC8SD0cO7kYF3qo-76" value="OUT 1:4" style="whiteSpace=wrap;html=1;" vertex="1" parent="cscOLaC8SD0cO7kYF3qo-46">
          <mxGeometry x="199" y="476" width="100" height="40" as="geometry" />
        </mxCell>
        <mxCell id="cscOLaC8SD0cO7kYF3qo-77" value="" style="edgeStyle=elbowEdgeStyle;elbow=horizontal;html=1;rounded=1;curved=0;sourcePerimeterSpacing=0;targetPerimeterSpacing=0;startSize=6;endSize=6;" edge="1" target="cscOLaC8SD0cO7kYF3qo-78" source="cscOLaC8SD0cO7kYF3qo-48" parent="cscOLaC8SD0cO7kYF3qo-46">
          <mxGeometry relative="1" as="geometry">
            <mxPoint x="2021" y="565" as="sourcePoint" />
          </mxGeometry>
        </mxCell>
        <mxCell id="cscOLaC8SD0cO7kYF3qo-78" value="OUT 1:4" style="whiteSpace=wrap;html=1;" vertex="1" parent="cscOLaC8SD0cO7kYF3qo-46">
          <mxGeometry x="349" y="20" width="100" height="40" as="geometry" />
        </mxCell>
        <mxCell id="cscOLaC8SD0cO7kYF3qo-79" value="" style="edgeStyle=elbowEdgeStyle;elbow=horizontal;html=1;rounded=1;curved=0;sourcePerimeterSpacing=0;targetPerimeterSpacing=0;startSize=6;endSize=6;" edge="1" target="cscOLaC8SD0cO7kYF3qo-80" source="cscOLaC8SD0cO7kYF3qo-48" parent="cscOLaC8SD0cO7kYF3qo-46">
          <mxGeometry relative="1" as="geometry">
            <mxPoint x="2171" y="445" as="sourcePoint" />
          </mxGeometry>
        </mxCell>
        <mxCell id="cscOLaC8SD0cO7kYF3qo-80" value="OUT 1:4" style="whiteSpace=wrap;html=1;" vertex="1" parent="cscOLaC8SD0cO7kYF3qo-46">
          <mxGeometry x="349" y="100" width="100" height="40" as="geometry" />
        </mxCell>
        <mxCell id="cscOLaC8SD0cO7kYF3qo-85" value="" style="edgeStyle=elbowEdgeStyle;elbow=horizontal;html=1;rounded=1;curved=0;sourcePerimeterSpacing=0;targetPerimeterSpacing=0;startSize=6;endSize=6;" edge="1" target="cscOLaC8SD0cO7kYF3qo-86" source="cscOLaC8SD0cO7kYF3qo-48" parent="cscOLaC8SD0cO7kYF3qo-46">
          <mxGeometry relative="1" as="geometry">
            <mxPoint x="2171" y="605" as="sourcePoint" />
          </mxGeometry>
        </mxCell>
        <mxCell id="cscOLaC8SD0cO7kYF3qo-86" value="OUT 1:4" style="whiteSpace=wrap;html=1;" vertex="1" parent="cscOLaC8SD0cO7kYF3qo-46">
          <mxGeometry x="349" y="180" width="100" height="40" as="geometry" />
        </mxCell>
        <mxCell id="cscOLaC8SD0cO7kYF3qo-87" value="" style="edgeStyle=elbowEdgeStyle;elbow=horizontal;html=1;rounded=1;curved=0;sourcePerimeterSpacing=0;targetPerimeterSpacing=0;startSize=6;endSize=6;" edge="1" target="cscOLaC8SD0cO7kYF3qo-88" source="cscOLaC8SD0cO7kYF3qo-48" parent="cscOLaC8SD0cO7kYF3qo-46">
          <mxGeometry relative="1" as="geometry">
            <mxPoint x="2171" y="821" as="sourcePoint" />
          </mxGeometry>
        </mxCell>
        <mxCell id="cscOLaC8SD0cO7kYF3qo-88" value="OUT 1:4" style="whiteSpace=wrap;html=1;" vertex="1" parent="cscOLaC8SD0cO7kYF3qo-46">
          <mxGeometry x="349" y="260" width="100" height="40" as="geometry" />
        </mxCell>
        <mxCell id="cscOLaC8SD0cO7kYF3qo-90" value="From OLT" style="text;strokeColor=none;fillColor=none;html=1;fontSize=24;fontStyle=1;verticalAlign=middle;align=center;" vertex="1" parent="1">
          <mxGeometry x="1282" y="1563" width="100" height="40" as="geometry" />
        </mxCell>
      </root>
    </mxGraphModel>
  </diagram>
</mxfile>
